<svg width="50" height="50" viewBox="0 0 50 50" fill="none" xmlns="http://www.w3.org/2000/svg">
<g filter="url(#filter0_d)">
<circle cx="25" cy="25" r="15" transform="rotate(-180 25 25)" fill="white"/>
</g>
<path d="M19.9336 25.532L26.0019 31.6003C26.1423 31.7407 26.3296 31.8181 26.5294 31.8181C26.7292 31.8181 26.9165 31.7407 27.0569 31.6003L27.5038 31.1535C27.7946 30.8624 27.7946 30.3892 27.5038 30.0985L22.408 25.0028L27.5094 19.9014C27.6498 19.7609 27.7273 19.5736 27.7273 19.374C27.7273 19.1741 27.6498 18.9868 27.5095 18.8463L27.0626 18.3996C26.9221 18.2591 26.7348 18.1818 26.5351 18.1818C26.3353 18.1818 26.1479 18.2591 26.0076 18.3996L19.9336 24.4734C19.7929 24.6143 19.7156 24.8024 19.7161 25.0024C19.7156 25.2032 19.7929 25.3912 19.9336 25.532Z" fill="#383838"/>
<defs>
<filter id="filter0_d" x="0" y="0" width="50" height="50" filterUnits="userSpaceOnUse" color-interpolation-filters="sRGB">
<feFlood flood-opacity="0" result="BackgroundImageFix"/>
<feColorMatrix in="SourceAlpha" type="matrix" values="0 0 0 0 0 0 0 0 0 0 0 0 0 0 0 0 0 0 127 0"/>
<feOffset/>
<feGaussianBlur stdDeviation="5"/>
<feColorMatrix type="matrix" values="0 0 0 0 0 0 0 0 0 0 0 0 0 0 0 0 0 0 0.1 0"/>
<feBlend mode="normal" in2="BackgroundImageFix" result="effect1_dropShadow"/>
<feBlend mode="normal" in="SourceGraphic" in2="effect1_dropShadow" result="shape"/>
</filter>
</defs>
</svg>
