<svg width="8" height="6" viewBox="0 0 8 6" fill="none" xmlns="http://www.w3.org/2000/svg">
<path d="M7.27361 0H6.43178C6.2487 0 6.07459 0.0924586 5.9669 0.25096L3.14527 4.36444L1.86728 2.50016C1.75958 2.34355 1.58727 2.2492 1.40239 2.2492H0.56057C0.443899 2.2492 0.375692 2.38883 0.443899 2.48884L2.68038 5.74943C2.73322 5.82695 2.80286 5.89012 2.88356 5.93369C2.96425 5.97727 3.05366 6 3.14437 6C3.23509 6 3.3245 5.97727 3.40519 5.93369C3.48588 5.89012 3.55553 5.82695 3.60836 5.74943L7.38848 0.239639C7.45848 0.139632 7.39028 0 7.27361 0Z" fill="#32A73C"/>
</svg>
