<svg width="50" height="50" viewBox="0 0 50 50" fill="none" xmlns="http://www.w3.org/2000/svg">
<g filter="url(#filter0_d)">
<circle cx="25" cy="25" r="15" fill="white"/>
</g>
<path d="M30.0664 24.468L23.9981 18.3997C23.8577 18.2593 23.6704 18.1819 23.4706 18.1819C23.2708 18.1819 23.0835 18.2593 22.9431 18.3997L22.4962 18.8465C22.2054 19.1376 22.2054 19.6108 22.4962 19.9015L27.592 24.9972L22.4906 30.0986C22.3502 30.2391 22.2727 30.4264 22.2727 30.626C22.2727 30.8259 22.3502 31.0132 22.4906 31.1537L22.9374 31.6004C23.0779 31.7409 23.2652 31.8182 23.4649 31.8182C23.6647 31.8182 23.8521 31.7409 23.9924 31.6004L30.0664 25.5266C30.2071 25.3857 30.2844 25.1976 30.2839 24.9976C30.2844 24.7968 30.2071 24.6088 30.0664 24.468Z" fill="#383838"/>
<defs>
<filter id="filter0_d" x="0" y="0" width="50" height="50" filterUnits="userSpaceOnUse" color-interpolation-filters="sRGB">
<feFlood flood-opacity="0" result="BackgroundImageFix"/>
<feColorMatrix in="SourceAlpha" type="matrix" values="0 0 0 0 0 0 0 0 0 0 0 0 0 0 0 0 0 0 127 0"/>
<feOffset/>
<feGaussianBlur stdDeviation="5"/>
<feColorMatrix type="matrix" values="0 0 0 0 0 0 0 0 0 0 0 0 0 0 0 0 0 0 0.1 0"/>
<feBlend mode="normal" in2="BackgroundImageFix" result="effect1_dropShadow"/>
<feBlend mode="normal" in="SourceGraphic" in2="effect1_dropShadow" result="shape"/>
</filter>
</defs>
</svg>
