<svg width="26" height="26" viewBox="0 0 26 26" fill="none" xmlns="http://www.w3.org/2000/svg">
<rect width="26" height="26" rx="4" fill="#F71412"/>
<g clip-path="url(#clip0)">
<path d="M12.6793 9.72704C12.6793 8.22355 11.456 7 9.95253 7C8.44901 7 7.22589 8.22355 7.22589 9.72704C7.22589 11.2301 8.44901 12.4532 9.95253 12.4532C11.456 12.4533 12.6793 11.2302 12.6793 9.72704ZM8.58039 9.72704C8.58039 8.97001 9.1959 8.3545 9.95253 8.3545C10.7091 8.3545 11.3249 8.97001 11.3249 9.72704C11.3249 10.4832 10.7091 11.0987 9.95253 11.0987C9.1959 11.0987 8.58039 10.4832 8.58039 9.72704Z" fill="white"/>
<path d="M16.0477 13.5468C14.5442 13.5468 13.3211 14.7699 13.3211 16.273C13.3211 17.7765 14.5442 19 16.0477 19C17.5512 19 18.7744 17.7765 18.7744 16.273C18.7744 14.7698 17.5512 13.5468 16.0477 13.5468ZM16.0477 17.6455C15.2911 17.6455 14.6756 17.03 14.6756 16.273C14.6756 15.5168 15.2911 14.9013 16.0477 14.9013C16.8043 14.9013 17.4199 15.5168 17.4199 16.273C17.4198 17.03 16.8043 17.6455 16.0477 17.6455Z" fill="white"/>
<path d="M16.1318 7.34965C15.778 7.15343 15.3307 7.28003 15.1334 7.63409L9.56718 17.6288C9.36988 17.9828 9.49712 18.4299 9.85135 18.6275C9.96445 18.6901 10.087 18.7201 10.2078 18.7201C10.4656 18.7201 10.7156 18.5843 10.8498 18.3431L16.416 8.34836C16.6133 7.99427 16.4861 7.5472 16.1318 7.34965Z" fill="white"/>
</g>
<defs>
<clipPath id="clip0">
<rect width="12" height="12" fill="white" transform="translate(7 7)"/>
</clipPath>
</defs>
</svg>
