<svg width="50" height="50" viewBox="0 0 50 50" fill="none" xmlns="http://www.w3.org/2000/svg">
<g filter="url(#filter0_d)">
<circle cx="25" cy="25" r="15" transform="rotate(-90 25 25)" fill="white"/>
</g>
<path d="M25.5323 28.7825L31.6005 22.7141C31.741 22.5738 31.8184 22.3864 31.8184 22.1867C31.8184 21.9869 31.741 21.7995 31.6005 21.6592L31.1537 21.2123C30.8626 20.9215 30.3894 20.9215 30.0988 21.2123L25.003 26.308L19.9016 21.2066C19.7611 21.0663 19.5739 20.9888 19.3742 20.9888C19.1743 20.9888 18.9871 21.0663 18.8465 21.2066L18.3998 21.6535C18.2594 21.794 18.182 21.9812 18.182 22.181C18.182 22.3808 18.2594 22.5681 18.3998 22.7085L24.4736 28.7825C24.6145 28.9232 24.8027 29.0005 25.0027 29C25.2034 29.0005 25.3915 28.9232 25.5323 28.7825Z" fill="#383838"/>
<defs>
<filter id="filter0_d" x="0" y="0" width="50" height="50" filterUnits="userSpaceOnUse" color-interpolation-filters="sRGB">
<feFlood flood-opacity="0" result="BackgroundImageFix"/>
<feColorMatrix in="SourceAlpha" type="matrix" values="0 0 0 0 0 0 0 0 0 0 0 0 0 0 0 0 0 0 127 0"/>
<feOffset/>
<feGaussianBlur stdDeviation="5"/>
<feColorMatrix type="matrix" values="0 0 0 0 0 0 0 0 0 0 0 0 0 0 0 0 0 0 0.1 0"/>
<feBlend mode="normal" in2="BackgroundImageFix" result="effect1_dropShadow"/>
<feBlend mode="normal" in="SourceGraphic" in2="effect1_dropShadow" result="shape"/>
</filter>
</defs>
</svg>
